TITLE ""
FILE "LR_black_phrase_S01.mp3" MP3
  TRACK 01 AUDIO
    TITLE "LR_black_phrase_S01_001"
    INDEX 01 00:00:00
  TRACK 02 AUDIO
    TITLE "LR_black_phrase_S01_002"
    INDEX 01 00:00:14
  TRACK 03 AUDIO
    TITLE "LR_black_phrase_S01_003"
    INDEX 01 00:01:18
  TRACK 04 AUDIO
    TITLE "LR_black_phrase_S01_004"
    INDEX 01 00:01:57
  TRACK 05 AUDIO
    TITLE "LR_black_phrase_S01_005"
    INDEX 01 00:03:09
  TRACK 06 AUDIO
    TITLE "LR_black_phrase_S01_006"
    INDEX 01 00:04:08
  TRACK 07 AUDIO
    TITLE "LR_black_phrase_S01_007"
    INDEX 01 00:05:66
  TRACK 08 AUDIO
    TITLE "LR_black_phrase_S01_008"
    INDEX 01 00:06:32
  TRACK 09 AUDIO
    TITLE "LR_black_phrase_S01_009"
    INDEX 01 00:08:22
  TRACK 10 AUDIO
    TITLE "LR_black_phrase_S01_010"
    INDEX 01 00:08:53
  TRACK 11 AUDIO
    TITLE "LR_black_phrase_S01_011"
    INDEX 01 00:10:44
  TRACK 12 AUDIO
    TITLE "LR_black_phrase_S01_012"
    INDEX 01 00:11:47
  TRACK 13 AUDIO
    TITLE "LR_black_phrase_S01_013"
    INDEX 01 00:12:62
  TRACK 14 AUDIO
    TITLE "LR_black_phrase_S01_014"
    INDEX 01 00:13:27
  TRACK 15 AUDIO
    TITLE "LR_black_phrase_S01_015"
    INDEX 01 00:16:09
  TRACK 16 AUDIO
    TITLE "LR_black_phrase_S01_016"
    INDEX 01 00:17:07
  TRACK 17 AUDIO
    TITLE "LR_black_phrase_S01_017"
    INDEX 01 00:18:75
  TRACK 18 AUDIO
    TITLE "LR_black_phrase_S01_018"
    INDEX 01 00:19:37
  TRACK 19 AUDIO
    TITLE "LR_black_phrase_S01_019"
    INDEX 01 00:21:18
  TRACK 20 AUDIO
    TITLE "LR_black_phrase_S01_020"
    INDEX 01 00:21:50
  TRACK 21 AUDIO
    TITLE "LR_black_phrase_S01_021"
    INDEX 01 00:23:29
  TRACK 22 AUDIO
    TITLE "LR_black_phrase_S01_022"
    INDEX 01 00:24:32
  TRACK 23 AUDIO
    TITLE "LR_black_phrase_S01_023"
    INDEX 01 00:25:69
  TRACK 24 AUDIO
    TITLE "LR_black_phrase_S01_024"
    INDEX 01 00:26:29
  TRACK 25 AUDIO
    TITLE "LR_black_phrase_S01_025"
    INDEX 01 00:28:14
  TRACK 26 AUDIO
    TITLE "LR_black_phrase_S01_026"
    INDEX 01 00:29:16
  TRACK 27 AUDIO
    TITLE "LR_black_phrase_S01_027"
    INDEX 01 00:31:28
  TRACK 28 AUDIO
    TITLE "LR_black_phrase_S01_028"
    INDEX 01 00:31:70
  TRACK 29 AUDIO
    TITLE "LR_black_phrase_S01_029"
    INDEX 01 00:34:05
  TRACK 30 AUDIO
    TITLE "LR_black_phrase_S01_030"
    INDEX 01 00:34:31
  TRACK 31 AUDIO
    TITLE "LR_black_phrase_S01_031"
    INDEX 01 00:36:37
  TRACK 32 AUDIO
    TITLE "LR_black_phrase_S01_032"
    INDEX 01 00:37:37
  TRACK 33 AUDIO
    TITLE "LR_black_phrase_S01_033"
    INDEX 01 00:38:54
  TRACK 34 AUDIO
    TITLE "LR_black_phrase_S01_034"
    INDEX 01 00:39:18
  TRACK 35 AUDIO
    TITLE "LR_black_phrase_S01_035"
    INDEX 01 00:40:67
  TRACK 36 AUDIO
    TITLE "LR_black_phrase_S01_036"
    INDEX 01 00:41:68
  TRACK 37 AUDIO
    TITLE "LR_black_phrase_S01_037"
    INDEX 01 00:44:66
  TRACK 38 AUDIO
    TITLE "LR_black_phrase_S01_038"
    INDEX 01 00:45:34
  TRACK 39 AUDIO
    TITLE "LR_black_phrase_S01_039"
    INDEX 01 00:47:47
  TRACK 40 AUDIO
    TITLE "LR_black_phrase_S01_040"
    INDEX 01 00:48:03
  TRACK 41 AUDIO
    TITLE "LR_black_phrase_S01_041"
    INDEX 01 00:50:18
  TRACK 42 AUDIO
    TITLE "LR_black_phrase_S01_042"
    INDEX 01 00:51:21
  TRACK 43 AUDIO
    TITLE "LR_black_phrase_S01_043"
    INDEX 01 00:52:40
  TRACK 44 AUDIO
    TITLE "LR_black_phrase_S01_044"
    INDEX 01 00:53:07
  TRACK 45 AUDIO
    TITLE "LR_black_phrase_S01_045"
    INDEX 01 00:54:45
  TRACK 46 AUDIO
    TITLE "LR_black_phrase_S01_046"
    INDEX 01 00:55:37
  TRACK 47 AUDIO
    TITLE "LR_black_phrase_S01_047"
    INDEX 01 00:57:34
  TRACK 48 AUDIO
    TITLE "LR_black_phrase_S01_048"
    INDEX 01 00:57:71
  TRACK 49 AUDIO
    TITLE "LR_black_phrase_S01_049"
    INDEX 01 01:00:03
  TRACK 50 AUDIO
    TITLE "LR_black_phrase_S01_050"
    INDEX 01 01:00:32
  TRACK 51 AUDIO
    TITLE "LR_black_phrase_S01_051"
    INDEX 01 01:02:37
  TRACK 52 AUDIO
    TITLE "LR_black_phrase_S01_052"
    INDEX 01 01:03:42
  TRACK 53 AUDIO
    TITLE "LR_black_phrase_S01_053"
    INDEX 01 01:04:55
  TRACK 54 AUDIO
    TITLE "LR_black_phrase_S01_054"
    INDEX 01 01:05:22
  TRACK 55 AUDIO
    TITLE "LR_black_phrase_S01_055"
    INDEX 01 01:08:18
  TRACK 56 AUDIO
    TITLE "LR_black_phrase_S01_056"
    INDEX 01 01:09:17
  TRACK 57 AUDIO
    TITLE "LR_black_phrase_S01_057"
    INDEX 01 01:11:44
  TRACK 58 AUDIO
    TITLE "LR_black_phrase_S01_058"
    INDEX 01 01:12:10
  TRACK 59 AUDIO
    TITLE "LR_black_phrase_S01_059"
    INDEX 01 01:14:17
  TRACK 60 AUDIO
    TITLE "LR_black_phrase_S01_060"
    INDEX 01 01:14:48
  TRACK 61 AUDIO
    TITLE "LR_black_phrase_S01_061"
    INDEX 01 01:16:55
  TRACK 62 AUDIO
    TITLE "LR_black_phrase_S01_062"
    INDEX 01 01:17:50
  TRACK 63 AUDIO
    TITLE "LR_black_phrase_S01_063"
    INDEX 01 01:19:04
  TRACK 64 AUDIO
    TITLE "LR_black_phrase_S01_064"
    INDEX 01 01:19:45
  TRACK 65 AUDIO
    TITLE "LR_black_phrase_S01_065"
    INDEX 01 01:21:01
  TRACK 66 AUDIO
    TITLE "LR_black_phrase_S01_066"
    INDEX 01 01:21:75
  TRACK 67 AUDIO
    TITLE "LR_black_phrase_S01_067"
    INDEX 01 01:24:01
  TRACK 68 AUDIO
    TITLE "LR_black_phrase_S01_068"
    INDEX 01 01:24:38
  TRACK 69 AUDIO
    TITLE "LR_black_phrase_S01_069"
    INDEX 01 01:26:37
  TRACK 70 AUDIO
    TITLE "LR_black_phrase_S01_070"
    INDEX 01 01:26:67
  TRACK 71 AUDIO
    TITLE "LR_black_phrase_S01_071"
    INDEX 01 01:28:66
  TRACK 72 AUDIO
    TITLE "LR_black_phrase_S01_072"
    INDEX 01 01:29:69
  TRACK 73 AUDIO
    TITLE "LR_black_phrase_S01_073"
    INDEX 01 01:31:35
  TRACK 74 AUDIO
    TITLE "LR_black_phrase_S01_074"
    INDEX 01 01:31:74
  TRACK 75 AUDIO
    TITLE "LR_black_phrase_S01_075"
    INDEX 01 01:34:31
  TRACK 76 AUDIO
    TITLE "LR_black_phrase_S01_076"
    INDEX 01 01:35:32
  TRACK 77 AUDIO
    TITLE "LR_black_phrase_S01_077"
    INDEX 01 01:38:62
  TRACK 78 AUDIO
    TITLE "LR_black_phrase_S01_078"
    INDEX 01 01:39:24
  TRACK 79 AUDIO
    TITLE "LR_black_phrase_S01_079"
    INDEX 01 01:42:70
  TRACK 80 AUDIO
    TITLE "LR_black_phrase_S01_080"
    INDEX 01 01:43:22
  TRACK 81 AUDIO
    TITLE "LR_black_phrase_S01_081"
    INDEX 01 01:46:66
  TRACK 82 AUDIO
    TITLE "LR_black_phrase_S01_082"
    INDEX 01 01:47:69
  TRACK 83 AUDIO
    TITLE "LR_black_phrase_S01_083"
    INDEX 01 01:49:15
  TRACK 84 AUDIO
    TITLE "LR_black_phrase_S01_084"
    INDEX 01 01:49:58
  TRACK 85 AUDIO
    TITLE "LR_black_phrase_S01_085"
    INDEX 01 01:51:22
  TRACK 86 AUDIO
    TITLE "LR_black_phrase_S01_086"
    INDEX 01 01:52:21
  TRACK 87 AUDIO
    TITLE "LR_black_phrase_S01_087"
    INDEX 01 01:55:19
  TRACK 88 AUDIO
    TITLE "LR_black_phrase_S01_088"
    INDEX 01 01:55:59
  TRACK 89 AUDIO
    TITLE "LR_black_phrase_S01_089"
    INDEX 01 01:58:67
  TRACK 90 AUDIO
    TITLE "LR_black_phrase_S01_090"
    INDEX 01 01:59:21
  TRACK 91 AUDIO
    TITLE "LR_black_phrase_S01_091"
    INDEX 01 02:02:29
  TRACK 92 AUDIO
    TITLE "LR_black_phrase_S01_092"
    INDEX 01 02:03:35
  TRACK 93 AUDIO
    TITLE "LR_black_phrase_S01_093"
    INDEX 01 02:04:60
  TRACK 94 AUDIO
    TITLE "LR_black_phrase_S01_094"
    INDEX 01 02:05:20
  TRACK 95 AUDIO
    TITLE "LR_black_phrase_S01_095"
    INDEX 01 02:07:44
  TRACK 96 AUDIO
    TITLE "LR_black_phrase_S01_096"
    INDEX 01 02:08:44
  TRACK 97 AUDIO
    TITLE "LR_black_phrase_S01_097"
    INDEX 01 02:11:36
  TRACK 98 AUDIO
    TITLE "LR_black_phrase_S01_098"
    INDEX 01 02:12:04
  TRACK 99 AUDIO
    TITLE "LR_black_phrase_S01_099"
    INDEX 01 02:14:62
  TRACK 100 AUDIO
    TITLE "LR_black_phrase_S01_100"
    INDEX 01 02:15:20
  TRACK 101 AUDIO
    TITLE "LR_black_phrase_S01_101"
    INDEX 01 02:18:01
  TRACK 102 AUDIO
    TITLE "LR_black_phrase_S01_102"
    INDEX 01 02:19:08
  TRACK 103 AUDIO
    TITLE "LR_black_phrase_S01_103"
    INDEX 01 02:20:33
  TRACK 104 AUDIO
    TITLE "LR_black_phrase_S01_104"
    INDEX 01 02:20:72
  TRACK 105 AUDIO
    TITLE "LR_black_phrase_S01_105"
    INDEX 01 02:23:45
  TRACK 106 AUDIO
    TITLE "LR_black_phrase_S01_106"
    INDEX 01 02:24:45
  TRACK 107 AUDIO
    TITLE "LR_black_phrase_S01_107"
    INDEX 01 02:27:63
  TRACK 108 AUDIO
    TITLE "LR_black_phrase_S01_108"
    INDEX 01 02:28:27
  TRACK 109 AUDIO
    TITLE "LR_black_phrase_S01_109"
    INDEX 01 02:31:37
  TRACK 110 AUDIO
    TITLE "LR_black_phrase_S01_110"
    INDEX 01 02:31:64
  TRACK 111 AUDIO
    TITLE "LR_black_phrase_S01_111"
    INDEX 01 02:34:74
  TRACK 112 AUDIO
    TITLE "LR_black_phrase_S01_112"
    INDEX 01 02:36:03
  TRACK 113 AUDIO
    TITLE "LR_black_phrase_S01_113"
    INDEX 01 02:37:16
  TRACK 114 AUDIO
    TITLE "LR_black_phrase_S01_114"
    INDEX 01 02:37:57
  TRACK 115 AUDIO
    TITLE "LR_black_phrase_S01_115"
    INDEX 01 02:41:02
  TRACK 116 AUDIO
    TITLE "LR_black_phrase_S01_116"
    INDEX 01 02:42:01
  TRACK 117 AUDIO
    TITLE "LR_black_phrase_S01_117"
    INDEX 01 02:43:73
  TRACK 118 AUDIO
    TITLE "LR_black_phrase_S01_118"
    INDEX 01 02:44:39
  TRACK 119 AUDIO
    TITLE "LR_black_phrase_S01_119"
    INDEX 01 02:47:06
  TRACK 120 AUDIO
    TITLE "LR_black_phrase_S01_120"
    INDEX 01 02:47:36
  TRACK 121 AUDIO
    TITLE "LR_black_phrase_S01_121"
    INDEX 01 02:50:03
  TRACK 122 AUDIO
    TITLE "LR_black_phrase_S01_122"
    INDEX 01 02:51:10
  TRACK 123 AUDIO
    TITLE "LR_black_phrase_S01_123"
    INDEX 01 02:52:39
  TRACK 124 AUDIO
    TITLE "LR_black_phrase_S01_124"
    INDEX 01 02:53:05
  TRACK 125 AUDIO
    TITLE "LR_black_phrase_S01_125"
    INDEX 01 02:55:29
  TRACK 126 AUDIO
    TITLE "LR_black_phrase_S01_126"
    INDEX 01 02:56:31
  TRACK 127 AUDIO
    TITLE "LR_black_phrase_S01_127"
    INDEX 01 02:58:51
  TRACK 128 AUDIO
    TITLE "LR_black_phrase_S01_128"
    INDEX 01 02:59:15
  TRACK 129 AUDIO
    TITLE "LR_black_phrase_S01_129"
    INDEX 01 03:02:16
  TRACK 130 AUDIO
    TITLE "LR_black_phrase_S01_130"
    INDEX 01 03:02:43
  TRACK 131 AUDIO
    TITLE "LR_black_phrase_S01_131"
    INDEX 01 03:05:45
  TRACK 132 AUDIO
    TITLE "LR_black_phrase_S01_132"
    INDEX 01 03:06:45
  TRACK 133 AUDIO
    TITLE "LR_black_phrase_S01_133"
    INDEX 01 03:08:22
  TRACK 134 AUDIO
    TITLE "LR_black_phrase_S01_134"
    INDEX 01 03:08:61
  TRACK 135 AUDIO
    TITLE "LR_black_phrase_S01_135"
    INDEX 01 03:10:06
  TRACK 136 AUDIO
    TITLE "LR_black_phrase_S01_136"
    INDEX 01 03:11:03
  TRACK 137 AUDIO
    TITLE "LR_black_phrase_S01_137"
    INDEX 01 03:12:51
  TRACK 138 AUDIO
    TITLE "LR_black_phrase_S01_138"
    INDEX 01 03:13:14
  TRACK 139 AUDIO
    TITLE "LR_black_phrase_S01_139"
    INDEX 01 03:15:42
  TRACK 140 AUDIO
    TITLE "LR_black_phrase_S01_140"
    INDEX 01 03:15:71
  TRACK 141 AUDIO
    TITLE "LR_black_phrase_S01_141"
    INDEX 01 03:18:25
  TRACK 142 AUDIO
    TITLE "LR_black_phrase_S01_142"
    INDEX 01 03:19:32
  TRACK 143 AUDIO
    TITLE "LR_black_phrase_S01_143"
    INDEX 01 03:20:45
  TRACK 144 AUDIO
    TITLE "LR_black_phrase_S01_144"
    INDEX 01 03:21:09
  TRACK 145 AUDIO
    TITLE "LR_black_phrase_S01_145"
    INDEX 01 03:22:71
  TRACK 146 AUDIO
    TITLE "LR_black_phrase_S01_146"
    INDEX 01 03:23:69
  TRACK 147 AUDIO
    TITLE "LR_black_phrase_S01_147"
    INDEX 01 03:26:28
  TRACK 148 AUDIO
    TITLE "LR_black_phrase_S01_148"
    INDEX 01 03:26:69
  TRACK 149 AUDIO
    TITLE "LR_black_phrase_S01_149"
    INDEX 01 03:28:68
  TRACK 150 AUDIO
    TITLE "LR_black_phrase_S01_150"
    INDEX 01 03:29:24
  TRACK 151 AUDIO
    TITLE "LR_black_phrase_S01_151"
    INDEX 01 03:31:23
  TRACK 152 AUDIO
    TITLE "LR_black_phrase_S01_152"
    INDEX 01 03:32:27
  TRACK 153 AUDIO
    TITLE "LR_black_phrase_S01_153"
    INDEX 01 03:33:61
  TRACK 154 AUDIO
    TITLE "LR_black_phrase_S01_154"
    INDEX 01 03:34:28
  TRACK 155 AUDIO
    TITLE "LR_black_phrase_S01_155"
    INDEX 01 03:36:05
  TRACK 156 AUDIO
    TITLE "LR_black_phrase_S01_156"
    INDEX 01 03:37:04
  TRACK 157 AUDIO
    TITLE "LR_black_phrase_S01_157"
    INDEX 01 03:39:39
  TRACK 158 AUDIO
    TITLE "LR_black_phrase_S01_158"
    INDEX 01 03:40:05
  TRACK 159 AUDIO
    TITLE "LR_black_phrase_S01_159"
    INDEX 01 03:43:25
  TRACK 160 AUDIO
    TITLE "LR_black_phrase_S01_160"
    INDEX 01 03:43:54
  TRACK 161 AUDIO
    TITLE "LR_black_phrase_S01_161"
    INDEX 01 03:46:74
  TRACK 162 AUDIO
    TITLE "LR_black_phrase_S01_162"
    INDEX 01 03:48:04
  TRACK 163 AUDIO
    TITLE "LR_black_phrase_S01_163"
    INDEX 01 03:49:23
  TRACK 164 AUDIO
    TITLE "LR_black_phrase_S01_164"
    INDEX 01 03:49:62
  TRACK 165 AUDIO
    TITLE "LR_black_phrase_S01_165"
    INDEX 01 03:52:20
  TRACK 166 AUDIO
    TITLE "LR_black_phrase_S01_166"
    INDEX 01 03:53:19
  TRACK 167 AUDIO
    TITLE "LR_black_phrase_S01_167"
    INDEX 01 03:55:65
  TRACK 168 AUDIO
    TITLE "LR_black_phrase_S01_168"
    INDEX 01 03:56:31
  TRACK 169 AUDIO
    TITLE "LR_black_phrase_S01_169"
    INDEX 01 03:58:48
  TRACK 170 AUDIO
    TITLE "LR_black_phrase_S01_170"
    INDEX 01 03:59:04
  TRACK 171 AUDIO
    TITLE "LR_black_phrase_S01_171"
    INDEX 01 04:01:21
  TRACK 172 AUDIO
    TITLE "LR_black_phrase_S01_172"
    INDEX 01 04:02:26
  TRACK 173 AUDIO
    TITLE "LR_black_phrase_S01_173"
    INDEX 01 04:03:53
  TRACK 174 AUDIO
    TITLE "LR_black_phrase_S01_174"
    INDEX 01 04:04:17
  TRACK 175 AUDIO
    TITLE "LR_black_phrase_S01_175"
    INDEX 01 04:07:19
  TRACK 176 AUDIO
    TITLE "LR_black_phrase_S01_176"
    INDEX 01 04:08:15
  TRACK 177 AUDIO
    TITLE "LR_black_phrase_S01_177"
    INDEX 01 04:09:63
  TRACK 178 AUDIO
    TITLE "LR_black_phrase_S01_178"
    INDEX 01 04:10:29
  TRACK 179 AUDIO
    TITLE "LR_black_phrase_S01_179"
    INDEX 01 04:12:28
  TRACK 180 AUDIO
    TITLE "LR_black_phrase_S01_180"
    INDEX 01 04:12:60
  TRACK 181 AUDIO
    TITLE "LR_black_phrase_S01_181"
    INDEX 01 04:14:58
  TRACK 182 AUDIO
    TITLE "LR_black_phrase_S01_182"
    INDEX 01 04:15:64
  TRACK 183 AUDIO
    TITLE "LR_black_phrase_S01_183"
    INDEX 01 04:17:06
  TRACK 184 AUDIO
    TITLE "LR_black_phrase_S01_184"
    INDEX 01 04:17:43
  TRACK 185 AUDIO
    TITLE "LR_black_phrase_S01_185"
    INDEX 01 04:19:09
  TRACK 186 AUDIO
    TITLE "LR_black_phrase_S01_186"
    INDEX 01 04:20:08
  TRACK 187 AUDIO
    TITLE "LR_black_phrase_S01_187"
    INDEX 01 04:23:14
  TRACK 188 AUDIO
    TITLE "LR_black_phrase_S01_188"
    INDEX 01 04:23:52
  TRACK 189 AUDIO
    TITLE "LR_black_phrase_S01_189"
    INDEX 01 04:25:72
  TRACK 190 AUDIO
    TITLE "LR_black_phrase_S01_190"
    INDEX 01 04:26:26
  TRACK 191 AUDIO
    TITLE "LR_black_phrase_S01_191"
    INDEX 01 04:28:47
  TRACK 192 AUDIO
    TITLE "LR_black_phrase_S01_192"
    INDEX 01 04:29:50
  TRACK 193 AUDIO
    TITLE "LR_black_phrase_S01_193"
    INDEX 01 04:30:71
  TRACK 194 AUDIO
    TITLE "LR_black_phrase_S01_194"
    INDEX 01 04:31:31
  TRACK 195 AUDIO
    TITLE "LR_black_phrase_S01_195"
    INDEX 01 04:32:66
  TRACK 196 AUDIO
    TITLE "LR_black_phrase_S01_196"
    INDEX 01 04:33:64
  TRACK 197 AUDIO
    TITLE "LR_black_phrase_S01_197"
    INDEX 01 04:36:21
  TRACK 198 AUDIO
    TITLE "LR_black_phrase_S01_198"
    INDEX 01 04:36:52
  TRACK 199 AUDIO
    TITLE "LR_black_phrase_S01_199"
    INDEX 01 04:39:11
  TRACK 200 AUDIO
    TITLE "LR_black_phrase_S01_200"
    INDEX 01 04:39:35
  TRACK 201 AUDIO
    TITLE "LR_black_phrase_S01_201"
    INDEX 01 04:41:69
